<svg id="svg" xmlns="http://www.w3.org/2000/svg" xmlns:xlink="http://www.w3.org/1999/xlink" width="400" height="354.9902152641879" viewBox="0, 0, 400,354.9902152641879"><g id="svgg"><path id="path0" d="M164.869 87.898 L 164.971 106.588 180.039 115.938 C 188.327 121.080,195.592 125.547,196.184 125.863 L 197.260 126.439 197.260 107.718 L 197.260 88.997 181.340 79.234 C 172.583 73.865,165.272 69.412,165.093 69.340 C 164.914 69.267,164.813 77.619,164.869 87.898 M218.494 79.163 L 202.351 89.041 202.349 107.730 C 202.349 118.009,202.427 126.419,202.524 126.419 C 202.620 126.419,209.004 122.516,216.711 117.746 C 224.418 112.976,231.645 108.529,232.771 107.863 L 234.818 106.654 234.826 87.965 C 234.830 77.686,234.790 69.278,234.736 69.280 C 234.682 69.282,227.373 73.730,218.494 79.163 M137.082 130.366 L 137.182 165.636 157.545 178.023 C 168.745 184.837,182.238 193.097,187.529 196.380 C 192.820 199.662,197.262 202.348,197.400 202.348 C 197.538 202.348,197.647 186.541,197.641 167.221 L 197.630 132.094 190.302 127.627 C 186.272 125.170,173.292 117.265,161.457 110.061 C 149.622 102.856,139.274 96.542,138.461 96.029 L 136.982 95.095 137.082 130.366 M232.594 113.621 L 202.371 132.094 202.360 167.221 C 202.353 186.541,202.417 202.348,202.501 202.348 C 202.586 202.348,208.177 198.949,214.928 194.795 C 221.678 190.641,235.259 182.349,245.108 176.369 L 263.014 165.496 263.014 130.302 C 263.014 110.945,262.970 95.117,262.916 95.128 C 262.862 95.139,249.217 103.461,232.594 113.621 M81.353 215.388 C 70.564 219.065,66.172 233.483,72.210 245.399 C 77.714 256.261,94.729 257.219,101.131 247.028 C 102.564 244.748,103.812 241.103,103.228 240.905 C 100.756 240.067,98.176 239.641,98.052 240.050 C 96.609 244.814,94.195 247.684,90.779 248.699 C 79.789 251.962,72.198 240.643,76.354 227.188 C 79.422 217.255,93.947 216.188,97.075 225.667 C 97.318 226.403,97.635 227.000,97.780 226.992 C 98.333 226.963,102.630 225.877,102.778 225.729 C 103.154 225.352,101.625 221.944,100.279 220.157 C 96.354 214.947,88.472 212.961,81.353 215.388 M273.313 215.189 C 268.539 216.885,266.205 219.650,265.854 224.029 C 265.331 230.546,268.131 233.006,279.527 236.039 C 288.919 238.539,291.563 241.239,288.732 245.441 C 284.655 251.494,271.868 249.422,269.820 242.376 C 269.167 240.130,269.165 240.129,265.968 240.567 L 264.116 240.821 264.383 242.622 C 266.626 257.774,293.725 258.054,294.645 242.934 C 295.050 236.280,292.000 233.556,281.002 230.746 C 272.036 228.456,270.123 227.034,271.195 223.456 C 273.121 217.027,286.211 217.850,288.078 224.518 L 288.556 226.223 291.049 226.223 L 293.542 226.223 293.542 224.902 C 293.542 217.222,282.506 211.922,273.313 215.189 M307.967 215.368 C 291.365 221.156,292.544 249.846,309.533 253.447 C 318.185 255.281,325.605 252.133,328.775 245.284 C 330.757 241.002,330.747 240.922,328.108 240.331 C 326.856 240.051,325.619 239.740,325.359 239.641 C 325.087 239.536,324.772 239.933,324.618 240.571 C 322.515 249.292,311.890 252.150,305.614 245.683 C 300.856 240.780,300.695 228.203,305.323 222.945 C 310.808 216.713,321.561 218.217,323.749 225.520 C 323.994 226.337,324.262 227.006,324.346 227.006 C 325.353 227.006,329.550 225.626,329.550 225.295 C 329.548 222.696,324.907 217.139,321.432 215.576 C 318.501 214.257,311.465 214.148,307.967 215.368 M162.054 218.254 C 160.078 222.471,160.057 222.309,162.563 222.309 L 164.656 222.309 167.181 219.080 C 168.569 217.304,169.839 215.631,170.003 215.362 C 170.232 214.986,169.532 214.873,166.970 214.873 L 163.638 214.873 162.054 218.254 M182.387 234.051 L 182.387 253.229 184.932 253.229 L 187.476 253.229 187.476 234.051 L 187.476 214.873 184.932 214.873 L 182.387 214.873 182.387 234.051 M194.129 217.808 L 194.129 220.744 196.673 220.744 L 199.217 220.744 199.217 217.808 L 199.217 214.873 196.673 214.873 L 194.129 214.873 194.129 217.808 M141.487 217.219 L 139.139 218.653 139.026 222.047 L 138.913 225.440 137.362 225.440 L 135.812 225.440 135.812 227.397 L 135.812 229.354 137.340 229.354 L 138.867 229.354 139.012 239.628 C 139.202 253.080,139.574 253.792,146.278 253.539 L 149.315 253.425 149.218 252.055 C 149.014 249.163,148.878 248.976,146.876 248.847 C 144.124 248.670,144.044 248.367,144.037 238.063 L 144.031 229.354 146.380 229.354 L 148.728 229.354 148.728 227.397 L 148.728 225.440 146.391 225.440 L 144.055 225.440 143.945 220.613 L 143.836 215.785 141.487 217.219 M114.353 225.795 C 109.560 227.450,105.963 234.017,109.834 234.045 C 110.291 234.048,111.192 234.156,111.836 234.285 C 112.867 234.491,113.039 234.392,113.273 233.462 C 114.887 227.031,126.419 227.867,126.419 234.415 C 126.419 235.810,125.850 236.012,119.178 236.985 C 111.159 238.154,108.909 239.380,107.621 243.282 C 104.661 252.250,118.041 257.950,125.726 250.995 C 126.533 250.265,126.577 250.293,127.081 251.859 C 127.450 253.002,127.533 253.036,130.253 253.148 L 133.047 253.263 132.391 251.778 C 131.856 250.566,131.697 248.461,131.524 240.313 C 131.287 229.195,131.142 228.565,128.401 226.718 C 125.649 224.863,118.425 224.388,114.353 225.795 M159.571 225.592 C 152.190 228.331,148.954 238.308,152.656 246.912 C 156.663 256.228,171.455 256.316,176.005 247.051 C 178.573 241.823,177.334 232.155,173.622 228.442 C 170.560 225.381,163.822 224.014,159.571 225.592 M212.870 225.589 C 202.260 229.381,201.619 248.171,211.937 252.916 C 214.869 254.264,220.163 254.189,222.896 252.760 C 227.588 250.306,230.733 243.839,227.495 243.304 C 224.341 242.783,224.082 242.886,223.548 244.881 C 222.365 249.304,217.539 251.027,213.436 248.491 C 209.225 245.888,208.615 235.372,212.441 231.353 C 215.888 227.733,221.149 228.588,223.141 233.092 L 223.853 234.703 226.212 234.323 C 228.942 233.883,229.029 233.665,227.639 230.724 C 225.355 225.893,218.596 223.543,212.870 225.589 M238.943 225.581 C 233.529 227.348,229.252 234.014,233.513 234.045 C 233.970 234.048,234.875 234.157,235.524 234.287 C 236.599 234.502,236.743 234.404,237.147 233.177 C 239.157 227.089,250.098 228.002,250.098 234.257 C 250.098 235.846,249.518 236.063,242.802 236.998 C 234.661 238.130,231.871 240.003,231.095 244.855 C 229.847 252.659,240.090 256.809,248.340 251.840 C 250.970 250.257,250.881 250.278,250.881 251.240 C 250.881 253.006,251.236 253.229,254.054 253.229 C 255.537 253.229,256.751 253.162,256.751 253.081 C 256.751 253.000,256.469 252.257,256.124 251.431 C 255.631 250.251,255.442 247.783,255.243 239.935 C 254.951 228.396,254.796 227.848,251.355 226.153 C 249.111 225.047,241.633 224.703,238.943 225.581 M194.129 239.335 L 194.129 253.229 196.673 253.229 L 199.217 253.229 199.217 239.335 L 199.217 225.440 196.673 225.440 L 194.129 225.440 194.129 239.335 M168.276 230.475 C 171.670 232.502,173.183 238.336,171.667 243.549 C 169.262 251.823,158.797 251.668,156.931 243.331 C 154.706 233.386,161.071 226.172,168.276 230.475 M126.284 242.280 C 125.776 247.142,122.869 249.762,117.984 249.762 C 111.958 249.762,110.413 243.357,116.100 241.950 C 117.769 241.537,125.122 240.071,125.985 239.980 C 126.421 239.933,126.481 240.394,126.284 242.280 M250.098 242.013 C 250.098 248.241,241.843 252.489,237.730 248.376 C 234.802 245.448,236.546 242.609,241.879 241.620 C 243.708 241.281,246.086 240.782,247.162 240.512 C 250.195 239.751,250.098 239.701,250.098 242.013 M69.667 258.904 L 69.667 259.883 199.804 259.883 L 329.941 259.883 329.941 258.904 L 329.941 257.926 199.804 257.926 L 69.667 257.926 69.667 258.904 M77.385 263.816 C 72.480 265.025,69.871 268.858,69.922 274.776 C 69.992 282.814,75.674 287.357,83.083 285.299 C 86.450 284.364,90.336 278.753,88.063 278.109 C 87.632 277.986,86.944 277.792,86.532 277.676 C 85.947 277.511,85.687 277.761,85.334 278.830 C 82.647 286.973,72.647 282.561,73.287 273.515 C 73.800 266.279,82.357 263.453,84.932 269.669 C 85.298 270.552,85.616 270.808,86.157 270.656 C 86.559 270.543,87.241 270.350,87.671 270.228 C 88.692 269.939,88.659 269.498,87.465 267.462 C 85.706 264.460,81.275 262.857,77.385 263.816 M169.480 271.918 C 169.493 283.918,171.055 286.174,178.962 285.614 C 185.088 285.181,186.061 283.373,186.231 272.114 L 186.357 263.796 184.798 263.796 L 183.240 263.796 183.107 271.792 C 182.985 279.182,182.912 279.871,182.154 280.892 C 180.428 283.216,176.350 283.471,174.031 281.401 L 172.798 280.300 172.672 272.048 L 172.546 263.796 171.009 263.796 L 169.472 263.796 169.480 271.918 M206.654 265.558 L 206.654 267.319 208.219 267.319 L 209.785 267.319 209.785 265.558 L 209.785 263.796 208.219 263.796 L 206.654 263.796 206.654 265.558 M268.885 265.558 C 268.885 267.310,268.892 267.319,270.254 267.319 C 271.617 267.319,271.624 267.310,271.624 265.558 C 271.624 263.806,271.617 263.796,270.254 263.796 C 268.892 263.796,268.885 263.806,268.885 265.558 M288.923 265.568 C 287.273 268.965,289.579 269.402,292.074 266.164 C 293.917 263.775,293.920 263.796,291.663 263.796 C 289.822 263.796,289.767 263.832,288.923 265.568 M309.589 265.558 L 309.589 267.319 311.155 267.319 L 312.720 267.319 312.720 265.558 L 312.720 263.796 311.155 263.796 L 309.589 263.796 309.589 265.558 M126.125 265.081 C 124.964 265.761,124.853 265.993,124.853 267.746 C 124.853 269.534,124.786 269.667,123.875 269.667 C 123.048 269.667,122.896 269.850,122.896 270.841 C 122.896 271.833,123.048 272.016,123.875 272.016 L 124.853 272.016 124.853 277.843 C 124.853 284.691,125.095 285.285,128.000 285.574 C 130.278 285.801,130.885 285.379,130.539 283.806 C 130.316 282.791,130.084 282.583,129.173 282.583 C 127.755 282.583,127.605 281.997,127.598 276.419 L 127.593 272.016 128.963 272.016 C 130.224 272.016,130.333 271.922,130.333 270.841 C 130.333 269.763,130.222 269.667,128.980 269.667 L 127.627 269.667 127.512 267.002 L 127.397 264.336 126.125 265.081 M277.202 265.081 C 276.040 265.761,275.930 265.993,275.930 267.746 C 275.930 269.534,275.862 269.667,274.951 269.667 C 274.125 269.667,273.973 269.850,273.973 270.841 C 273.973 271.833,274.125 272.016,274.951 272.016 L 275.930 272.016 275.930 278.022 C 275.930 284.892,276.095 285.280,279.143 285.582 C 281.335 285.799,281.876 285.407,281.560 283.829 C 281.352 282.789,281.132 282.583,280.228 282.583 C 278.783 282.583,278.669 282.152,278.669 276.680 L 278.669 272.016 280.039 272.016 C 281.300 272.016,281.409 271.922,281.409 270.841 C 281.409 269.763,281.298 269.667,280.056 269.667 L 278.704 269.667 278.589 267.002 L 278.474 264.336 277.202 265.081 M95.375 269.821 C 89.200 272.116,89.098 282.987,95.231 285.299 C 99.169 286.784,104.884 284.193,104.891 280.920 C 104.893 279.716,102.004 279.979,101.432 281.234 C 99.977 284.426,94.827 283.235,94.087 279.536 L 93.836 278.278 99.610 278.278 L 105.385 278.278 105.117 276.264 C 104.411 270.939,100.077 268.073,95.375 269.821 M113.120 269.690 C 112.586 269.916,111.837 270.382,111.456 270.727 C 110.814 271.309,110.763 271.293,110.763 270.511 C 110.763 269.808,110.535 269.667,109.393 269.667 L 108.023 269.667 108.023 277.495 L 108.023 285.323 109.342 285.323 L 110.661 285.323 110.841 280.027 C 111.037 274.227,111.477 273.004,113.641 272.234 C 116.792 271.111,117.795 272.969,117.802 279.941 L 117.808 285.323 119.420 285.323 L 121.031 285.323 120.877 278.930 C 120.713 272.156,120.425 271.040,118.580 270.053 C 117.414 269.429,114.238 269.218,113.120 269.690 M136.234 270.289 C 135.075 271.264,135.029 271.272,135.029 270.485 C 135.029 269.837,134.785 269.667,133.855 269.667 L 132.681 269.667 132.681 277.495 L 132.681 285.323 134.013 285.323 L 135.346 285.323 135.481 279.874 C 135.642 273.389,136.241 272.146,138.983 272.609 C 140.306 272.833,141.292 271.819,141.292 270.234 C 141.292 270.031,138.801 269.276,138.132 269.276 C 137.750 269.276,136.896 269.732,136.234 270.289 M146.089 269.690 C 142.257 270.866,140.379 275.846,141.872 280.872 C 144.057 288.231,155.023 286.965,155.987 279.242 C 156.840 272.416,152.104 267.846,146.089 269.690 M195.555 269.658 C 194.940 269.854,194.103 270.315,193.696 270.684 C 192.991 271.322,192.955 271.313,192.955 270.511 C 192.955 269.808,192.727 269.667,191.585 269.667 L 190.215 269.667 190.215 277.495 L 190.215 285.323 191.781 285.323 L 193.346 285.323 193.346 279.865 C 193.346 273.610,193.768 272.594,196.547 272.152 C 199.440 271.691,200.000 272.904,200.000 279.630 L 200.000 285.323 201.566 285.323 L 203.131 285.323 203.131 279.439 C 203.131 270.646,201.021 267.922,195.555 269.658 M232.060 269.650 C 225.586 271.612,225.189 282.735,231.508 285.148 C 235.670 286.738,240.202 284.869,241.286 281.115 C 241.742 279.535,238.842 279.871,237.499 281.555 C 235.668 283.850,232.523 283.557,230.930 280.943 C 229.344 278.342,229.462 278.278,235.812 278.278 L 241.487 278.278 241.485 277.006 C 241.476 271.679,236.970 268.162,232.060 269.650 M248.664 269.649 C 248.198 269.847,247.631 270.328,247.403 270.719 C 247.025 271.369,246.990 271.354,246.979 270.548 C 246.969 269.805,246.753 269.667,245.597 269.667 L 244.227 269.667 244.227 277.495 L 244.227 285.323 245.764 285.323 L 247.300 285.323 247.427 279.661 C 247.573 273.126,247.806 272.603,250.569 272.603 C 252.260 272.603,253.512 270.968,252.554 270.010 C 252.002 269.458,249.632 269.238,248.664 269.649 M256.571 269.840 C 251.090 271.871,252.803 277.134,259.509 278.868 C 262.326 279.597,263.014 280.016,263.014 281.005 C 263.014 283.734,257.267 283.788,256.319 281.067 C 255.849 279.719,253.229 279.729,253.229 281.080 C 253.229 285.865,262.759 287.544,265.394 283.223 C 267.469 279.820,266.024 277.583,260.685 275.936 C 256.610 274.678,255.846 274.016,256.998 272.742 C 258.333 271.267,262.622 272.206,262.622 273.973 C 262.622 274.612,264.970 274.429,265.223 273.770 C 266.326 270.895,260.664 268.324,256.571 269.840 M286.693 269.978 C 284.765 270.636,282.584 273.415,283.206 274.422 C 283.503 274.902,286.106 274.834,286.106 274.346 C 286.106 272.460,290.355 271.276,292.281 272.625 C 294.307 274.044,293.480 275.418,290.313 275.896 C 285.906 276.562,284.483 277.131,283.477 278.629 C 280.305 283.350,286.053 287.655,291.706 284.793 C 293.436 283.917,293.537 283.908,293.756 284.597 C 293.930 285.146,294.372 285.323,295.567 285.323 C 296.927 285.323,297.106 285.227,296.847 284.638 C 296.682 284.261,296.443 281.163,296.316 277.754 C 296.098 271.871,296.039 271.517,295.174 270.816 C 293.202 269.220,289.876 268.892,286.693 269.978 M304.305 269.708 C 303.875 269.955,303.302 270.432,303.033 270.769 C 302.604 271.307,302.544 271.277,302.544 270.525 C 302.544 269.806,302.323 269.667,301.174 269.667 L 299.804 269.667 299.804 277.495 L 299.804 285.323 301.370 285.323 L 302.935 285.323 302.935 280.418 C 302.935 273.567,303.580 272.262,306.833 272.525 C 307.935 272.614,308.913 270.791,308.164 270.042 C 307.537 269.416,305.175 269.211,304.305 269.708 M320.022 269.847 C 312.498 272.529,314.371 285.714,322.275 285.714 C 327.371 285.714,329.946 282.884,329.931 277.299 C 329.914 271.342,325.384 267.935,320.022 269.847 M206.654 277.495 L 206.654 285.323 208.219 285.323 L 209.785 285.323 209.785 277.495 L 209.785 269.667 208.219 269.667 L 206.654 269.667 206.654 277.495 M211.742 270.133 C 211.742 270.389,213.001 273.911,214.540 277.961 L 217.339 285.323 218.845 285.323 C 219.674 285.323,220.352 285.264,220.352 285.192 C 220.352 285.120,221.585 281.820,223.092 277.859 C 226.320 269.372,226.287 269.582,224.367 269.742 L 222.903 269.863 220.958 275.245 C 219.888 278.205,218.918 280.626,218.802 280.625 C 218.686 280.625,217.734 278.159,216.686 275.146 L 214.782 269.667 213.262 269.667 C 212.348 269.667,211.742 269.853,211.742 270.133 M268.885 277.495 L 268.885 285.323 270.254 285.323 L 271.624 285.323 271.624 277.495 L 271.624 269.667 270.254 269.667 L 268.885 269.667 268.885 277.495 M309.589 277.495 L 309.589 285.323 311.155 285.323 L 312.720 285.323 312.720 277.495 L 312.720 269.667 311.155 269.667 L 309.589 269.667 309.589 277.495 M100.299 272.796 C 100.845 273.225,101.476 274.106,101.702 274.753 L 102.112 275.930 97.996 275.930 C 93.914 275.930,93.883 275.922,94.133 275.049 C 94.878 272.454,98.283 271.210,100.299 272.796 M151.423 273.205 C 155.201 276.983,151.952 284.724,147.389 282.817 C 142.694 280.855,143.799 272.016,148.739 272.016 C 149.882 272.016,150.513 272.296,151.423 273.205 M236.933 273.048 C 237.500 273.615,237.965 274.217,237.965 274.385 C 237.965 274.554,238.072 274.970,238.202 275.310 C 238.410 275.851,237.915 275.930,234.309 275.930 L 230.178 275.930 230.588 274.753 C 231.543 272.012,234.975 271.090,236.933 273.048 M325.336 273.158 C 327.252 274.869,327.285 279.940,325.394 281.832 C 323.448 283.777,320.405 283.418,319.234 281.104 C 316.412 275.528,321.123 269.393,325.336 273.158 M292.453 281.374 C 290.845 283.527,287.497 283.876,286.279 282.016 C 285.073 280.176,286.343 279.233,291.194 278.366 C 293.296 277.990,293.901 279.435,292.453 281.374 " stroke="none" fill="#000000" fill-rule="evenodd"></path></g></svg>