<?xml version="1.0" encoding="UTF-8" standalone="no" ?>
<!DOCTYPE svg PUBLIC "-//W3C//DTD SVG 1.1//EN" "http://www.w3.org/Graphics/SVG/1.1/DTD/svg11.dtd">
<svg xmlns="http://www.w3.org/2000/svg" xmlns:xlink="http://www.w3.org/1999/xlink" version="1.1" width="1080" height="1080" viewBox="0 0 1080 1080" xml:space="preserve">
<desc>Created with Fabric.js 5.2.4</desc>
<defs>
</defs>
<g transform="matrix(1 0 0 1 540 540)" id="b759bac1-78c7-4442-ade6-5c7f21358892"  >
<rect style="stroke: none; stroke-width: 1; stroke-dasharray: none; stroke-linecap: butt; stroke-dashoffset: 0; stroke-linejoin: miter; stroke-miterlimit: 4; fill: rgb(255,255,255); fill-rule: nonzero; opacity: 1; visibility: hidden;" vector-effect="non-scaling-stroke"  x="-540" y="-540" rx="0" ry="0" width="1080" height="1080" />
</g>
<g transform="matrix(1 0 0 1 540 540)" id="0dc6d85e-5088-49ed-bf94-8bd0ec58bf7f"  >
</g>
<g transform="matrix(6.09 0 0 6.09 540 540)"  >
<g style="" vector-effect="non-scaling-stroke"   >
		<g transform="matrix(1 0 0 1 -13.65 -65.63)"  >
<path style="stroke: none; stroke-width: 1; stroke-dasharray: none; stroke-linecap: butt; stroke-dashoffset: 0; stroke-linejoin: miter; stroke-miterlimit: 4; fill: rgb(255,255,255); fill-rule: evenodd; opacity: 1;" vector-effect="non-scaling-stroke"  transform=" translate(-72.36, -19.94)" d="M 103.458 0.081 C 97.678 2.011 92.706 4.7490000000000006 88.717 8.471 C 95.358 10.899000000000001 102.454 12.871 108.013 16.381 C 99.45500000000001 16.35 92.052 16.654 84.283 17.699 C 82.736 17.908 80.678 17.852 79.848 18.299000000000003 C 78.878 18.821 77.571 21.693000000000005 76.851 22.973000000000003 C 74.035 27.987000000000002 72.583 33.876000000000005 70.978 39.872 C 66.16399999999999 35.756 61.797999999999995 28.88 58.03399999999999 22.853 C 50.22999999999999 24.797 43.26299999999999 27.578000000000003 36.69999999999999 30.763 C 40.93499999999999 24.371000000000002 47.55799999999999 19.329 53.71899999999999 14.463000000000001 C 52.42499999999999 11.442 50.557999999999986 8.995000000000001 48.445999999999984 6.793000000000001 C 54.18999999999998 5.461000000000001 61.201999999999984 4.942000000000001 67.86199999999998 5.235000000000001 C 68.84399999999998 5.278000000000001 69.88699999999999 5.581000000000001 70.85799999999998 5.475000000000001 C 72.61799999999998 5.283000000000001 74.82899999999998 4.094000000000001 76.85099999999997 3.4370000000000016 C 84.588 0.926 94.134 -0.345 103.458 0.081 z" stroke-linecap="round" />
</g>
		<g transform="matrix(1 0 0 1 52.03 -40)"  >
<path style="stroke: none; stroke-width: 1; stroke-dasharray: none; stroke-linecap: butt; stroke-dashoffset: 0; stroke-linejoin: miter; stroke-miterlimit: 4; fill: rgb(255,255,255); fill-rule: evenodd; opacity: 1;" vector-effect="non-scaling-stroke"  transform=" translate(-138.04, -45.56)" d="M 137.496 15.423 C 141.46 18.635 144.77 23.688000000000002 147.44400000000002 28.247 C 148.39900000000003 29.877 148.942 31.759 149.961 33.161 C 151.23000000000002 34.907000000000004 153.566 36.163000000000004 155.234 37.835 C 160.17600000000002 42.791000000000004 164.375 48.674 167.339 55.573 C 164.349 53.409 160.768 51.837 156.313 51.138 C 157.647 58.268 158.65599999999998 67.87899999999999 158.58999999999997 75.707 C 157.06599999999997 73.83699999999999 156.10499999999996 71.443 154.87499999999997 69.235 C 151.21699999999998 62.665 146.97199999999998 56.120999999999995 142.64899999999997 50.178 C 133.75699999999998 50.315 125.36399999999998 51.879999999999995 117.59999999999997 53.534 C 120.61599999999997 49.51 125.02799999999996 44.95 128.38699999999997 40.111 C 128.88599999999997 39.391999999999996 130.93699999999998 36.943 130.90399999999997 36.035999999999994 C 130.87799999999996 35.312 129.24299999999997 33.92999999999999 128.50699999999998 33.15899999999999 C 122.59699999999998 26.972999999999992 116.02399999999997 21.26599999999999 108.73199999999997 16.61999999999999 C 118.59199999999997 17.11299999999999 128.47399999999996 20.914999999999992 136.41799999999998 24.40999999999999 C 137.54 22 138.051 18.576 137.496 15.423 z" stroke-linecap="round" />
</g>
		<g transform="matrix(1 0 0 1 -67.4 -42.45)"  >
<path style="stroke: none; stroke-width: 1; stroke-dasharray: none; stroke-linecap: butt; stroke-dashoffset: 0; stroke-linejoin: miter; stroke-miterlimit: 4; fill: rgb(255,255,255); fill-rule: evenodd; opacity: 1;" vector-effect="non-scaling-stroke"  transform=" translate(-18.6, -43.11)" d="M 32.267 17.1 C 29.579000000000004 21.683 26.156000000000002 26.57 24.237000000000002 32.321 C 27.701 31.948999999999998 31.606 30.980999999999998 35.862 31.002999999999997 C 32.316 34.099 27.903000000000002 37.372 23.877000000000002 40.95099999999999 C 22.714000000000002 41.983999999999995 20.700000000000003 43.440999999999995 20.042 44.547 C 18.948 46.384 18.739 50.413 18.364 52.937 C 17.744 57.108999999999995 17.305 60.537 17.405 65.042 C 15.647000000000002 63.292 13.729000000000001 60.195 12.251000000000001 57.372 C 12.037 56.963 11.128000000000002 54.543 10.813 54.495 C 10.398000000000001 54.431999999999995 8.472000000000001 57.263 8.056000000000001 57.851 C 5.572000000000001 61.366 3.1030000000000006 65.057 1.3450000000000006 69.117 C 4.928 45.532 17.492 29.892 32.267 17.1 z" stroke-linecap="round" />
</g>
		<g transform="matrix(1 0 0 1 -5.86 -5.12)"  >
<path style="stroke: none; stroke-width: 1; stroke-dasharray: none; stroke-linecap: butt; stroke-dashoffset: 0; stroke-linejoin: miter; stroke-miterlimit: 4; fill: rgb(255,255,255); fill-rule: evenodd; opacity: 1;" vector-effect="non-scaling-stroke"  transform=" translate(-80.15, -80.44)" d="M 70.859 40.232 C 75.63499999999999 47.641999999999996 79.85499999999999 55.607 85.122 62.524 C 95.304 59.243 105.735 56.211 116.763 53.775 C 116.59 55.022999999999996 115.378 55.784 114.60600000000001 56.771 C 109.727 63.001000000000005 105.00200000000001 69.538 100.224 76.187 C 99.708 76.905 97.97200000000001 78.91499999999999 97.947 79.54299999999999 C 97.915 80.332 99.709 82.06599999999999 100.343 82.89899999999999 C 105.936 90.22599999999998 112.965 97.37599999999999 118.92 103.87299999999999 C 109.36500000000001 102.14599999999999 99.839 99.88099999999999 90.635 97.401 C 89.50800000000001 97.097 87.37700000000001 96.285 86.68 96.442 C 85.57400000000001 96.692 83.33500000000001 101.309 82.72500000000001 102.315 C 79.07300000000001 108.334 75.16400000000002 114.469 71.819 120.652 C 69.68 112.833 67.976 103.89 67.145 94.405 C 67.03699999999999 93.164 67.14399999999999 91.081 66.786 90.449 C 66.242 89.491 61.539 88.494 60.314 88.05199999999999 C 53.842 85.71799999999999 47.521 82.89599999999999 41.376999999999995 80.38199999999999 C 49.263999999999996 76.204 58.04299999999999 72.91699999999999 66.42599999999999 69.23599999999999 C 66.937 58.547 68.417 49.173 70.859 40.232 z" stroke-linecap="round" />
</g>
		<g transform="matrix(1 0 0 1 -65.56 9.38)"  >
<path style="stroke: none; stroke-width: 1; stroke-dasharray: none; stroke-linecap: butt; stroke-dashoffset: 0; stroke-linejoin: miter; stroke-miterlimit: 4; fill: rgb(255,255,255); fill-rule: evenodd; opacity: 1;" vector-effect="non-scaling-stroke"  transform=" translate(-20.45, -94.94)" d="M 17.165 65.52 C 17.929 71.10799999999999 18.055999999999997 77.334 19.322 82.419 C 26.201999999999998 81.429 33.141999999999996 80.499 40.894999999999996 80.381 C 35.91 84.958 29.770999999999994 90.55799999999999 24.834999999999997 96.441 C 24.209999999999997 97.187 23.004999999999995 98.495 22.917999999999996 99.078 C 22.760999999999996 100.122 23.757999999999996 102.032 24.115999999999996 103.273 C 25.907999999999998 109.481 28.205 115.02799999999999 31.067999999999998 120.05199999999999 C 25.627999999999997 116.943 20.256999999999998 113.76299999999999 15.486999999999998 109.98499999999999 C 12.812999999999999 114.10299999999998 10.729999999999999 118.81199999999998 9.493999999999998 124.36699999999999 C 7.3199999999999985 119.981 5.892999999999998 113.737 5.538999999999998 107.10799999999999 C 5.419999999999998 104.892 5.8569999999999975 102.279 5.418999999999998 100.27699999999999 C 5.116999999999998 98.89399999999999 3.1709999999999976 97.076 2.3029999999999977 95.60299999999998 C 1.5849999999999977 94.38299999999998 -0.2420000000000022 91.63799999999998 0.02599999999999758 90.20899999999997 C 0.24499999999999758 89.04199999999997 2.6429999999999976 88.05199999999998 3.7409999999999974 87.45299999999997 C 5.3489999999999975 86.57599999999998 6.621999999999997 85.86199999999998 8.054999999999998 85.41499999999998 C 10.199 77.639 13.481 71.742 17.165 65.52 z" stroke-linecap="round" />
</g>
		<g transform="matrix(1 0 0 1 59.76 22.39)"  >
<path style="stroke: none; stroke-width: 1; stroke-dasharray: none; stroke-linecap: butt; stroke-dashoffset: 0; stroke-linejoin: miter; stroke-miterlimit: 4; fill: rgb(255,255,255); fill-rule: evenodd; opacity: 1;" vector-effect="non-scaling-stroke"  transform=" translate(-145.77, -107.95)" d="M 158.351 76.547 C 159.974 83.972 160.511 91.842 161.108 100.158 C 165.621 98.878 169.417 95.20400000000001 172.014 92.008 C 170.25 100.767 167.115 109.738 162.306 115.619 C 161.83200000000002 116.198 160.996 116.61 160.747 117.297 C 160.186 118.845 160.33 120.937 160.02800000000002 122.571 C 159.11400000000003 127.513 157.812 131.839 155.59400000000002 135.755 C 153.61200000000002 133.7 151.49500000000003 130.74599999999998 148.64300000000003 129.16299999999998 C 141.97100000000003 133.67799999999997 134.39300000000003 137.28499999999997 125.27200000000003 139.35 C 128.86900000000003 134.509 132.18800000000005 129.232 135.57900000000004 123.76899999999999 C 135.89400000000003 123.26199999999999 136.94400000000005 121.922 136.89700000000005 121.49199999999999 C 136.83700000000005 120.92999999999999 135.23600000000005 120.08099999999999 134.50100000000006 119.454 C 129.12800000000007 114.87899999999999 123.49900000000007 109.458 119.52000000000007 103.993 C 126.52900000000007 104.85499999999999 135.41600000000005 105.22 142.89100000000008 104.472 C 144.01900000000006 104.359 145.66800000000006 104.511 146.24600000000007 104.232 C 146.78600000000006 103.972 147.40200000000007 102.012 147.92400000000006 100.996 C 151.819 93.41 155.34 84.574 158.351 76.547 z" stroke-linecap="round" />
</g>
		<g transform="matrix(1 0 0 1 -31.03 59.48)"  >
<path style="stroke: none; stroke-width: 1; stroke-dasharray: none; stroke-linecap: butt; stroke-dashoffset: 0; stroke-linejoin: miter; stroke-miterlimit: 4; fill: rgb(255,255,255); fill-rule: evenodd; opacity: 1;" vector-effect="non-scaling-stroke"  transform=" translate(-54.98, -145.04)" d="M 31.188 120.173 C 37.601 125.906 44.282 131.369 51.563 136.234 C 59.108000000000004 131.954 65.412 126.43200000000002 71.69800000000001 120.89300000000001 C 70.60000000000001 127.00600000000001 69.703 133.036 68.941 139.95000000000002 C 68.759 141.60000000000002 67.864 145.103 68.342 146.54200000000003 C 68.67099999999999 147.53200000000004 71.551 148.51100000000002 72.777 149.17900000000003 C 77.292 151.63800000000003 82.056 154.07000000000002 86.679 156.25000000000003 C 80.114 156.70000000000002 74.867 157.16500000000002 68.342 157.08900000000003 C 68.431 161.71500000000003 69.267 166.63000000000002 71.098 169.91300000000004 C 63.168 167.85500000000005 57.448 163.29100000000005 52.400999999999996 157.80800000000005 C 51.76499999999999 157.11700000000005 50.928 155.83000000000004 50.363 155.53100000000006 C 49.469 155.05700000000007 47.828 155.06600000000006 46.647999999999996 154.81200000000007 C 37.541 152.85100000000006 28.219999999999995 149.30400000000006 23.276999999999997 143.54500000000007 C 29.221999999999998 145.08300000000008 36.131 143.39700000000008 40.656 141.62700000000007 C 37.278 134.698 33.677 127.991 31.188 120.173 z" stroke-linecap="round" />
</g>
		<g transform="matrix(1 0 0 1 29.68 69.73)"  >
<path style="stroke: none; stroke-width: 1; stroke-dasharray: none; stroke-linecap: butt; stroke-dashoffset: 0; stroke-linejoin: miter; stroke-miterlimit: 4; fill: rgb(255,255,255); fill-rule: evenodd; opacity: 1;" vector-effect="non-scaling-stroke"  transform=" translate(-115.68, -155.3)" d="M 125.032 139.469 C 126.06 144.406 125.616 150.33499999999998 124.79299999999999 155.17 C 132.864 153.69299999999998 139.72199999999998 151.00199999999998 145.40699999999998 147.14 C 139.09499999999997 153.813 130.24399999999997 159.968 120.59699999999998 164.039 C 110.73799999999999 168.2 99.22499999999998 171.35 85.95999999999998 171.10999999999999 C 90.84899999999998 169.726 95.21099999999998 167.81699999999998 99.02299999999998 165.35699999999997 C 94.83299999999998 162.55599999999998 90.48599999999998 159.91199999999998 87.15799999999999 156.24799999999996 C 93.47399999999999 157.14499999999995 100.55599999999998 157.50299999999996 107.29399999999998 157.20599999999996 C 107.93999999999998 157.17799999999997 108.77399999999999 157.36899999999997 109.45099999999998 157.20599999999996 C 110.75099999999998 156.89299999999997 112.63899999999998 154.43799999999996 113.76499999999999 153.25099999999995 C 117.758 149.046 122.087 144 125.032 139.469 z" stroke-linecap="round" />
</g>
</g>
</g>
</svg>