<svg xmlns="http://www.w3.org/2000/svg" width="1200" height="800" viewBox="0 0 1200 800">
  <!-- Fundo do campo -->
  <rect width="1200" height="800" fill="#0f462d" />
  
  <!-- Padrão de linhas -->
  <pattern id="grass-pattern" width="40" height="40" patternUnits="userSpaceOnUse">
    <rect width="40" height="40" fill="#0f462d" />
    <rect width="40" height="20" fill="#0d3a25" />
  </pattern>
  <rect width="1200" height="800" fill="url(#grass-pattern)" opacity="0.6" />
  
  <!-- Linhas do campo -->
  <rect x="50" y="50" width="1100" height="700" stroke="#ffffff" stroke-width="4" fill="none" />
  
  <!-- Linha central -->
  <line x1="600" y1="50" x2="600" y2="750" stroke="#ffffff" stroke-width="4" />
  
  <!-- Círculo central -->
  <circle cx="600" cy="400" r="90" stroke="#ffffff" stroke-width="4" fill="none" />
  <circle cx="600" cy="400" r="5" fill="#ffffff" />
  
  <!-- Área de gol esquerda -->
  <rect x="50" y="250" width="150" height="300" stroke="#ffffff" stroke-width="4" fill="none" />
  <rect x="50" y="300" width="50" height="200" stroke="#ffffff" stroke-width="4" fill="none" />
  <circle cx="200" cy="400" r="5" fill="#ffffff" />
  <path d="M 50,300 A 100,100 0 0 1 50,500" stroke="#ffffff" stroke-width="4" fill="none" />
  
  <!-- Área de gol direita -->
  <rect x="1000" y="250" width="150" height="300" stroke="#ffffff" stroke-width="4" fill="none" />
  <rect x="1100" y="300" width="50" height="200" stroke="#ffffff" stroke-width="4" fill="none" />
  <circle cx="1000" cy="400" r="5" fill="#ffffff" />
  <path d="M 1150,300 A 100,100 0 0 0 1150,500" stroke="#ffffff" stroke-width="4" fill="none" />
  
  <!-- Cantos -->
  <path d="M 50,50 A 30,30 0 0 1 80,80" stroke="#ffffff" stroke-width="4" fill="none" />
  <path d="M 1150,50 A 30,30 0 0 0 1120,80" stroke="#ffffff" stroke-width="4" fill="none" />
  <path d="M 50,750 A 30,30 0 0 0 80,720" stroke="#ffffff" stroke-width="4" fill="none" />
  <path d="M 1150,750 A 30,30 0 0 1 1120,720" stroke="#ffffff" stroke-width="4" fill="none" />
  
  <!-- Overlay escuro para maior contraste com o conteúdo -->
  <rect width="1200" height="800" fill="#000" opacity="0.7" />
</svg> 